# xmcd CD database file
#
# Track frame offsets:
#	150
#	17530
#	40780
#	59952
#	79082
#	104510
#	120575
#	127875
#	155797
#	172647
#	190880
#
# Disc length: 2778 seconds
#
# Revision: 0
# Processed by: cddbd v1.5.1PL2 Copyright (c) Steve Scherf et al.
# Submitted via: CDex 1.51
#
DISCID=8a0ad80b
DTITLE=野崎美波 - ハルモニア
DYEAR=2005
DGENRE=New Age
TTITLE0=pompidou
TTITLE1=青い5月のセレナード
TTITLE2=kosmos
TTITLE3=c+bossa
TTITLE4=aquarius
TTITLE5=a.e.i.o.u.
TTITLE6=baby chick
TTITLE7=twinkling
TTITLE8=adelie cat
TTITLE9=fairly
TTITLE10=さくらさくらさくら
EXTD=YEAR: 2005
EXTT0=
EXTT1=
EXTT2=
EXTT3=
EXTT4=
EXTT5=
EXTT6=
EXTT7=
EXTT8=
EXTT9=
EXTT10=
PLAYORDER=
